<svg id="edit_linear" data-name="edit/linear" xmlns="http://www.w3.org/2000/svg" width="21.744" height="21.744" viewBox="0 0 21.744 21.744">
  <g id="vuesax_linear_edit" data-name="vuesax/linear/edit">
    <g id="edit">
      <path id="Vector" d="M8.154,0H6.342C1.812,0,0,1.812,0,6.342v5.436c0,4.53,1.812,6.342,6.342,6.342h5.436c4.53,0,6.342-1.812,6.342-6.342V9.966" transform="translate(1.812 1.812)" fill="none" stroke="#7a7474" stroke-linecap="round" stroke-linejoin="round" stroke-width="1.5"/>
      <path id="Vector-2" data-name="Vector" d="M8.146,1.152,1.007,8.291a2.457,2.457,0,0,0-.6,1.2l-.39,2.727a1.291,1.291,0,0,0,1.54,1.54l2.727-.39a2.538,2.538,0,0,0,1.2-.6l7.139-7.139c1.232-1.232,1.812-2.664,0-4.476S9.378-.08,8.146,1.152Z" transform="translate(6.386 1.584)" fill="none" stroke="#7a7474" stroke-linecap="round" stroke-linejoin="round" stroke-width="1.5"/>
      <path id="Vector-3" data-name="Vector" d="M0,0A6.473,6.473,0,0,0,4.476,4.476" transform="translate(13.509 3.76)" fill="none" stroke="#7a7474" stroke-linecap="round" stroke-linejoin="round" stroke-width="1.5"/>
      <path id="Vector-4" data-name="Vector" d="M0,0H21.744V21.744H0Z" fill="none" opacity="0"/>
    </g>
  </g>
</svg>
