<svg xmlns="http://www.w3.org/2000/svg" width="12.306" height="17.522" viewBox="0 0 12.306 17.522">
  <g id="noun-wait-5507679" transform="translate(-123.942 -77.145)">
    <path id="Path_59566" data-name="Path 59566" d="M210.495,78.814a1.669,1.669,0,0,1,1.669-1.669h8.968a1.669,1.669,0,0,1,1.669,1.669v.2a7.545,7.545,0,0,1-2.646,5.618l-.027.022-1.3,1.022a.313.313,0,0,0,0,.462l.014.012,1.2,1.014a7.031,7.031,0,0,1,1.947,2.365.2.2,0,0,1-.178.284H211.478a.2.2,0,0,1-.178-.284,7.959,7.959,0,0,1,1.84-2.347l.027-.022,1.3-1.022a.314.314,0,0,0,0-.461l-1.3-1.02a6.972,6.972,0,0,1-2.677-5.642Z" transform="translate(-86.552)" fill="#e2114a"/>
    <path id="Path_59567" data-name="Path 59567" d="M210.863,396.35a.2.2,0,0,0-.195.154,6.941,6.941,0,0,0-.169,1.517v.2a1.669,1.669,0,0,0,1.669,1.669h8.968a1.669,1.669,0,0,0,1.669-1.669v-.2a6.877,6.877,0,0,0-.173-1.518.2.2,0,0,0-.195-.154Z" transform="translate(-86.557 -305.222)" fill="#e2114a"/>
  </g>
</svg>
